<svg width="500" height="285" viewBox="0 0 615 344" fill="none" xmlns="http://www.w3.org/2000/svg" preserveAspectRatio="xMidYMid meet">
<path d="M161.5 111L100 172.5L148.5 221L193 176.5V201.5L148 246.5L97 195.5V148L147.5 97L161.5 111ZM192.5 142L131 203.5V176L178.5 128L192.5 142Z" fill="black"/>
<path d="M247.865 139.31H293.255V150.53H261.21V163.535H290.62V173.905H261.21V188.78H293.935V200H247.865V139.31ZM300.007 156.055H311.482V162.175H311.737C313.267 159.625 315.251 157.783 317.687 156.65C320.124 155.46 322.617 154.865 325.167 154.865C328.397 154.865 331.032 155.318 333.072 156.225C335.169 157.075 336.812 158.293 338.002 159.88C339.192 161.41 340.014 163.308 340.467 165.575C340.977 167.785 341.232 170.25 341.232 172.97V200H329.162V175.18C329.162 171.553 328.596 168.862 327.462 167.105C326.329 165.292 324.317 164.385 321.427 164.385C318.141 164.385 315.761 165.377 314.287 167.36C312.814 169.287 312.077 172.488 312.077 176.965V200H300.007V156.055ZM378.613 171.525C377.82 166.482 374.845 163.96 369.688 163.96C367.761 163.96 366.146 164.413 364.843 165.32C363.54 166.17 362.463 167.303 361.613 168.72C360.82 170.08 360.253 171.61 359.913 173.31C359.573 174.953 359.403 176.597 359.403 178.24C359.403 179.827 359.573 181.442 359.913 183.085C360.253 184.728 360.791 186.23 361.528 187.59C362.321 188.893 363.37 189.97 364.673 190.82C365.976 191.67 367.563 192.095 369.433 192.095C372.323 192.095 374.533 191.302 376.063 189.715C377.65 188.072 378.641 185.89 379.038 183.17H390.683C389.89 189.007 387.623 193.455 383.883 196.515C380.143 199.575 375.355 201.105 369.518 201.105C366.231 201.105 363.2 200.567 360.423 199.49C357.703 198.357 355.38 196.798 353.453 194.815C351.526 192.832 350.025 190.48 348.948 187.76C347.871 184.983 347.333 181.952 347.333 178.665C347.333 175.265 347.815 172.12 348.778 169.23C349.798 166.283 351.271 163.762 353.198 161.665C355.125 159.512 357.476 157.84 360.253 156.65C363.03 155.46 366.203 154.865 369.773 154.865C372.38 154.865 374.873 155.205 377.253 155.885C379.69 156.565 381.843 157.613 383.713 159.03C385.64 160.39 387.198 162.118 388.388 164.215C389.578 166.255 390.258 168.692 390.428 171.525H378.613ZM406.512 178.07C406.512 179.827 406.682 181.555 407.022 183.255C407.362 184.898 407.928 186.4 408.722 187.76C409.572 189.063 410.677 190.112 412.037 190.905C413.397 191.698 415.097 192.095 417.137 192.095C419.177 192.095 420.877 191.698 422.237 190.905C423.653 190.112 424.758 189.063 425.552 187.76C426.402 186.4 426.997 184.898 427.337 183.255C427.677 181.555 427.847 179.827 427.847 178.07C427.847 176.313 427.677 174.585 427.337 172.885C426.997 171.185 426.402 169.683 425.552 168.38C424.758 167.077 423.653 166.028 422.237 165.235C420.877 164.385 419.177 163.96 417.137 163.96C415.097 163.96 413.397 164.385 412.037 165.235C410.677 166.028 409.572 167.077 408.722 168.38C407.928 169.683 407.362 171.185 407.022 172.885C406.682 174.585 406.512 176.313 406.512 178.07ZM394.442 178.07C394.442 174.557 394.98 171.383 396.057 168.55C397.133 165.66 398.663 163.223 400.647 161.24C402.63 159.2 405.01 157.642 407.787 156.565C410.563 155.432 413.68 154.865 417.137 154.865C420.593 154.865 423.71 155.432 426.487 156.565C429.32 157.642 431.728 159.2 433.712 161.24C435.695 163.223 437.225 165.66 438.302 168.55C439.378 171.383 439.917 174.557 439.917 178.07C439.917 181.583 439.378 184.757 438.302 187.59C437.225 190.423 435.695 192.86 433.712 194.9C431.728 196.883 429.32 198.413 426.487 199.49C423.71 200.567 420.593 201.105 417.137 201.105C413.68 201.105 410.563 200.567 407.787 199.49C405.01 198.413 402.63 196.883 400.647 194.9C398.663 192.86 397.133 190.423 396.057 187.59C394.98 184.757 394.442 181.583 394.442 178.07ZM446.064 156.055H457.539V164.215H457.709C458.276 162.855 459.041 161.608 460.004 160.475C460.968 159.285 462.073 158.293 463.319 157.5C464.566 156.65 465.898 155.998 467.314 155.545C468.731 155.092 470.204 154.865 471.734 154.865C472.528 154.865 473.406 155.007 474.369 155.29V166.51C473.803 166.397 473.123 166.312 472.329 166.255C471.536 166.142 470.771 166.085 470.034 166.085C467.824 166.085 465.954 166.453 464.424 167.19C462.894 167.927 461.648 168.947 460.684 170.25C459.778 171.497 459.126 172.97 458.729 174.67C458.333 176.37 458.134 178.212 458.134 180.195V200H446.064V156.055ZM505.487 173.31C504.921 170.25 503.901 167.927 502.427 166.34C501.011 164.753 498.829 163.96 495.882 163.96C493.956 163.96 492.341 164.3 491.037 164.98C489.791 165.603 488.771 166.397 487.977 167.36C487.241 168.323 486.702 169.343 486.362 170.42C486.079 171.497 485.909 172.46 485.852 173.31H505.487ZM485.852 180.96C486.022 184.87 487.014 187.703 488.827 189.46C490.641 191.217 493.247 192.095 496.647 192.095C499.084 192.095 501.181 191.5 502.937 190.31C504.694 189.063 505.771 187.76 506.167 186.4H516.792C515.092 191.67 512.486 195.438 508.972 197.705C505.459 199.972 501.209 201.105 496.222 201.105C492.766 201.105 489.649 200.567 486.872 199.49C484.096 198.357 481.744 196.77 479.817 194.73C477.891 192.69 476.389 190.253 475.312 187.42C474.292 184.587 473.782 181.47 473.782 178.07C473.782 174.783 474.321 171.723 475.397 168.89C476.474 166.057 478.004 163.62 479.987 161.58C481.971 159.483 484.322 157.84 487.042 156.65C489.819 155.46 492.879 154.865 496.222 154.865C499.962 154.865 503.221 155.602 505.997 157.075C508.774 158.492 511.041 160.418 512.797 162.855C514.611 165.292 515.914 168.068 516.707 171.185C517.501 174.302 517.784 177.56 517.557 180.96H485.852Z" fill="black"/>
</svg>
